<svg width="24" height="24" viewBox="0 0 24 24" fill="none" xmlns="http://www.w3.org/2000/svg">
<path d="M9.40899 8H2.59084C1.71361 8 1 7.31315 1 6.46866V2.53119C1 1.68685 1.71361 1 2.59084 1H9.40899C10.2864 1 11 1.68685 11 2.53119V6.46866C11 7.31315 10.2864 8 9.40899 8ZM2.59084 2.31249C2.4655 2.31249 2.36363 2.41054 2.36363 2.53119V6.46866C2.36363 6.58946 2.4655 6.68751 2.59084 6.68751H9.40899C9.5345 6.68751 9.63637 6.58946 9.63637 6.46866V2.53119C9.63637 2.41054 9.5345 2.31249 9.40899 2.31249H2.59084Z" fill="white"/>
<path d="M9.40899 23H2.59084C1.71361 23 1 22.2711 1 21.3751V11.6251C1 10.7289 1.71361 10 2.59084 10H9.40899C10.2864 10 11 10.7289 11 11.6251V21.3751C11 22.2711 10.2864 23 9.40899 23ZM2.59084 11.3929C2.4655 11.3929 2.36363 11.4969 2.36363 11.6251V21.3751C2.36363 21.5031 2.4655 21.6071 2.59084 21.6071H9.40899C9.5345 21.6071 9.63637 21.5031 9.63637 21.3751V11.6251C9.63637 11.4969 9.5345 11.3929 9.40899 11.3929H2.59084Z" fill="white"/>
<path d="M21.4092 23H14.591C13.7136 23 13 22.3132 13 21.4688V17.5313C13 16.6868 13.7136 16 14.591 16H21.4092C22.2864 16 23 16.6868 23 17.5313V21.4688C23 22.3132 22.2864 23 21.4092 23ZM14.591 17.3125C14.4655 17.3125 14.3636 17.4105 14.3636 17.5313V21.4688C14.3636 21.5895 14.4655 21.6875 14.591 21.6875H21.4092C21.5345 21.6875 21.6364 21.5895 21.6364 21.4688V17.5313C21.6364 17.4105 21.5345 17.3125 21.4092 17.3125H14.591Z" fill="white"/>
<path d="M21.4092 14H14.591C13.7136 14 13 13.2711 13 12.3749V2.62494C13 1.7289 13.7136 1 14.591 1H21.4092C22.2864 1 23 1.7289 23 2.62494V12.3749C23 13.2711 22.2864 14 21.4092 14ZM14.591 2.39285C14.4655 2.39285 14.3636 2.49691 14.3636 2.62494V12.3749C14.3636 12.5031 14.4655 12.6071 14.591 12.6071H21.4092C21.5345 12.6071 21.6364 12.5031 21.6364 12.3749V2.62494C21.6364 2.49691 21.5345 2.39285 21.4092 2.39285H14.591Z" fill="white"/>
</svg>
