<svg width="26" height="26" viewBox="0 0 26 26" fill="none" xmlns="http://www.w3.org/2000/svg">
<g clip-path="url(#clip0)">
<circle cx="13" cy="13" r="13" fill="#878787"/>
<path d="M13 0.25C16.4061 0.25 19.6072 1.57591 22.0156 3.98438C24.4241 6.39285 25.75 9.59394 25.75 13C25.75 16.4063 24.4241 19.6072 22.0156 22.0156C19.6072 24.4241 16.4061 25.75 13 25.75C9.59394 25.75 6.39285 24.4241 3.98438 22.0156C1.57591 19.6072 0.25 16.4063 0.25 13C0.25 9.59394 1.57591 6.39285 3.98438 3.98438C6.39285 1.57591 9.59394 0.25 13 0.25Z" fill="white" stroke="#878787" stroke-width="0.5"/>
<circle cx="13" cy="13" r="8" fill="#FBFBFB" stroke="#FBFBFB" stroke-width="2"/>
<path d="M13 21C8.58172 21 5 17.4183 5 13H1C1 19.6274 6.37258 25 13 25V21ZM21 13C21 17.4183 17.4183 21 13 21V25C19.6274 25 25 19.6274 25 13H21ZM13 5C17.4183 5 21 8.58172 21 13H25C25 6.37258 19.6274 1 13 1V5ZM13 1C6.37258 1 1 6.37258 1 13H5C5 8.58172 8.58172 5 13 5V1Z" fill="#585858"/>
</g>
<defs>
<clipPath id="clip0">
<rect width="26" height="26" fill="white"/>
</clipPath>
</defs>
</svg>
