<svg width="24" height="24" viewBox="0 0 24 24" fill="none" xmlns="http://www.w3.org/2000/svg">
<path d="M19.8587 1.99963H10.5727C9.38915 1.99963 8.42973 2.95905 8.42973 4.14256V8.42844C8.42973 8.82295 8.74954 9.14276 9.14406 9.14276C9.53857 9.14276 9.85838 8.82295 9.85838 8.42844V4.14256C9.85838 3.74804 10.1782 3.42824 10.5727 3.42824H19.8588C20.2533 3.42824 20.5731 3.74804 20.5731 4.14256V19.8574C20.5731 20.252 20.2533 20.5718 19.8588 20.5718H10.5727C10.1781 20.5718 9.85834 20.252 9.85834 19.8574V15.5716C9.85834 15.1771 9.53853 14.8572 9.14401 14.8572C8.7495 14.8572 8.42969 15.1771 8.42969 15.5716V19.8574C8.42969 21.041 9.38911 22.0004 10.5726 22.0004H19.8587C21.0422 22.0004 22.0016 21.041 22.0016 19.8574V4.14256C22.0017 2.95905 21.0422 1.99963 19.8587 1.99963Z" fill="white"/>
<path d="M16.2854 11.2857H4.43782L6.79007 8.93344C7.06413 8.64967 7.05626 8.19748 6.77249 7.92342C6.49567 7.65609 6.05683 7.65609 5.78004 7.92342L2.20846 11.495C2.14212 11.5613 2.08967 11.6402 2.05418 11.7271C1.98194 11.9019 1.98194 12.0981 2.05418 12.2729C2.08984 12.36 2.14253 12.4392 2.20917 12.5057L5.78071 16.0773C6.05478 16.361 6.50697 16.3689 6.79074 16.0949C7.07451 15.8208 7.08238 15.3686 6.80832 15.0848C6.80259 15.0789 6.79673 15.073 6.79074 15.0673L4.43782 12.7143H16.2854C16.6799 12.7143 16.9997 12.3945 16.9997 12C16.9997 11.6055 16.6799 11.2857 16.2854 11.2857Z" fill="white"/>
</svg>
