<svg width="1440" height="976" viewBox="0 0 1440 976" fill="none" xmlns="http://www.w3.org/2000/svg">
<path d="M139.568 936.621C136.609 936.621 134.211 934.223 134.211 931.264V895.187C134.211 892.228 136.609 889.83 139.568 889.83C142.526 889.83 144.925 892.228 144.925 895.187V931.264C144.925 934.223 142.526 936.621 139.568 936.621Z" fill="#05BEC0" fill-opacity="0.1"/>
<path d="M186.568 936.621C183.609 936.621 181.211 934.223 181.211 931.264V895.187C181.211 892.228 183.609 889.83 186.568 889.83C189.526 889.83 191.925 892.228 191.925 895.187V931.264C191.925 934.223 189.526 936.621 186.568 936.621Z" fill="#05BEC0" fill-opacity="0.1"/>
<path d="M163.067 895.187H190.238C191.44 895.187 192.584 894.683 193.397 893.797C204.192 882.035 279.236 798.055 279.236 736.447C279.236 672.687 227.225 621 163.067 621C98.9094 621 46.8984 672.687 46.8984 736.447C46.8984 798.055 121.942 882.035 132.738 893.797C133.55 894.683 134.695 895.187 135.897 895.187H163.067Z" fill="#05BEC0" fill-opacity="0.1"/>
<path d="M263.375 678.188C263.843 682.873 264.085 687.625 264.085 692.433C264.085 770.538 200.768 833.855 122.663 833.855C108.487 833.855 94.8024 831.76 81.8906 827.878C103.041 860.806 126.997 887.538 132.741 893.798C133.554 894.684 134.697 895.186 135.898 895.186H163.069H190.24C191.441 895.186 192.586 894.682 193.399 893.797C204.194 882.035 279.238 798.054 279.238 736.446C279.238 715.196 273.454 695.291 263.375 678.188Z" fill="#16A5A7" fill-opacity="0.1"/>
<path d="M163.069 621C119.235 621 83.6992 672.687 83.6992 736.447C83.6992 802.829 143.227 895.187 143.227 895.187C143.227 895.187 148.683 895.187 154.05 895.187C154.049 895.183 126.993 802.828 126.993 736.447C126.992 672.688 143.144 621 163.069 621C182.995 621 199.147 672.688 199.147 736.447C199.147 802.828 172.09 895.183 172.089 895.187H182.913C182.913 895.187 242.44 802.829 242.44 736.447C242.44 672.687 206.904 621 163.069 621Z" fill="#F9F6F9"/>
<path d="M122.662 833.856C118.4 833.856 114.185 833.656 110.02 833.287C125.956 868.386 143.225 895.187 143.225 895.187C143.225 895.187 148.681 895.187 154.049 895.187C154.048 895.185 146.144 868.2 138.88 832.924C133.557 833.533 128.147 833.856 122.662 833.856Z" fill="#DFDDE2" fill-opacity="0.1"/>
<path d="M190.447 816.576C182.536 859.513 172.087 895.185 172.086 895.187H182.909C182.909 895.187 222.212 834.207 236.946 775.733C224.679 792.536 208.801 806.533 190.447 816.576Z" fill="#DFDDE2" fill-opacity="0.1"/>
<path d="M184.715 976H141.422C137.437 976 134.207 972.77 134.207 968.785V931.264H191.931V968.785C191.931 972.77 188.7 976 184.715 976Z" fill="#05BEC0" fill-opacity="0.1"/>
<path d="M176.059 931.264V968.785C176.059 972.77 172.828 976 168.844 976H184.718C188.702 976 191.933 972.77 191.933 968.785V931.264H176.059Z" fill="#16A5A7" fill-opacity="0.1"/>
<path d="M311.414 914.144C310.217 913.964 309.231 913.139 308.738 912.033C304.689 902.958 295.591 896.63 285.011 896.63C274.431 896.63 265.333 902.958 261.284 912.033C260.791 913.139 259.805 913.964 258.608 914.144C250.299 915.391 243.921 922.539 243.883 931.187C243.841 940.755 252.008 948.581 261.576 948.581H308.446C318.014 948.581 326.181 940.755 326.139 931.187C326.101 922.539 319.723 915.391 311.414 914.144Z" fill="#21D3D4" fill-opacity="0.28"/>
<path d="M308.733 912.019C306.144 906.226 301.496 901.557 295.72 898.938C297.192 903.066 298 907.51 298 912.144C298 928.629 287.851 942.736 273.465 948.582H308.447C318.015 948.582 326.182 940.756 326.14 931.187C326.102 922.541 319.726 915.393 311.419 914.145C310.216 913.964 309.23 913.13 308.733 912.019Z" fill="#05BEC0" fill-opacity="0.1"/>
<path d="M67.5313 896.827C66.3345 896.647 65.3486 895.821 64.8556 894.716C60.8064 885.641 51.7081 879.313 41.1282 879.313C30.5482 879.313 21.4499 885.641 17.4007 894.716C16.9077 895.821 15.9218 896.647 14.725 896.827C6.41581 898.074 0.038293 905.222 0.000158252 913.869C-0.0414433 923.438 8.12494 931.264 17.6933 931.264H64.563C74.1314 931.264 82.2978 923.438 82.2561 913.869C82.218 905.222 75.8405 898.074 67.5313 896.827Z" fill="#21D3D5" fill-opacity="0.1"/>
<path d="M64.8504 894.702C62.2614 888.909 57.6132 884.239 51.8375 881.621C53.3095 885.749 54.1172 890.193 54.1172 894.826C54.1172 911.312 43.9685 925.419 29.582 931.264H64.5641C74.1324 931.264 82.2988 923.438 82.2572 913.87C82.2191 905.223 75.8437 898.076 67.5358 896.827C66.3328 896.646 65.3469 895.813 64.8504 894.702Z" fill="#05BEC0" fill-opacity="0.1"/>
<path d="M199.148 936.621H126.994C124.035 936.621 121.637 934.223 121.637 931.264C121.637 928.306 124.035 925.908 126.994 925.908H199.148C202.107 925.908 204.505 928.306 204.505 931.264C204.506 934.223 202.107 936.621 199.148 936.621Z" fill="#16A5A7" fill-opacity="0.1"/>
<path d="M1329.88 275.613C1327.29 275.613 1325.2 273.519 1325.2 270.935V239.431C1325.2 236.847 1327.29 234.753 1329.88 234.753C1332.46 234.753 1334.55 236.847 1334.55 239.431V270.935C1334.56 273.519 1332.46 275.613 1329.88 275.613Z" fill="#05BEC0" fill-opacity="0.1"/>
<path d="M1370.92 275.613C1368.33 275.613 1366.24 273.519 1366.24 270.935V239.431C1366.24 236.847 1368.33 234.753 1370.92 234.753C1373.5 234.753 1375.59 236.847 1375.59 239.431V270.935C1375.59 273.519 1373.5 275.613 1370.92 275.613Z" fill="#05BEC0" fill-opacity="0.1"/>
<path d="M1350.4 239.431H1374.12C1375.17 239.431 1376.17 238.991 1376.88 238.217C1386.31 227.946 1451.84 154.611 1451.84 100.813C1451.84 45.1352 1406.42 -3.05176e-05 1350.4 -3.05176e-05C1294.37 -3.05176e-05 1248.95 45.1352 1248.95 100.813C1248.95 154.611 1314.48 227.946 1323.91 238.217C1324.62 238.991 1325.62 239.431 1326.67 239.431H1350.4Z" fill="#05BEC0" fill-opacity="0.1"/>
<path d="M1437.99 49.9391C1438.4 54.0302 1438.61 58.1795 1438.61 62.3778C1438.61 130.583 1383.32 185.873 1315.12 185.873C1302.74 185.873 1290.79 184.044 1279.51 180.654C1297.98 209.408 1318.9 232.752 1323.92 238.218C1324.63 238.991 1325.62 239.43 1326.67 239.43H1350.4H1374.13C1375.18 239.43 1376.18 238.99 1376.89 238.217C1386.31 227.946 1451.84 154.611 1451.84 100.812C1451.84 82.256 1446.79 64.8735 1437.99 49.9391Z" fill="#16A5A7" fill-opacity="0.1"/>
<path d="M1350.4 -3.05176e-05C1312.12 -3.05176e-05 1281.09 45.1352 1281.09 100.813C1281.09 158.78 1333.07 239.431 1333.07 239.431C1333.07 239.431 1337.84 239.431 1342.52 239.431C1342.52 239.428 1318.9 158.779 1318.9 100.813C1318.89 45.1358 1333 -3.05176e-05 1350.4 -3.05176e-05C1367.8 -3.05176e-05 1381.9 45.1358 1381.9 100.813C1381.9 158.779 1358.28 239.427 1358.28 239.431H1367.73C1367.73 239.431 1419.71 158.78 1419.71 100.813C1419.71 45.1352 1388.68 -3.05176e-05 1350.4 -3.05176e-05Z" fill="#F9F6F9"/>
<path d="M1315.11 185.874C1311.39 185.874 1307.71 185.7 1304.07 185.377C1317.99 216.028 1333.07 239.431 1333.07 239.431C1333.07 239.431 1337.84 239.431 1342.52 239.431C1342.52 239.429 1335.62 215.865 1329.28 185.061C1324.63 185.592 1319.9 185.874 1315.11 185.874Z" fill="#DFDDE2" fill-opacity="0.1"/>
<path d="M1374.31 170.785C1367.4 208.279 1358.27 239.429 1358.27 239.431H1367.72C1367.72 239.431 1402.05 186.181 1414.91 135.119C1404.2 149.792 1390.33 162.015 1374.31 170.785Z" fill="#DFDDE2" fill-opacity="0.1"/>
<path d="M1369.3 310H1331.5C1328.02 310 1325.2 307.179 1325.2 303.699V270.935H1375.6V303.699C1375.6 307.179 1372.78 310 1369.3 310Z" fill="#05BEC0" fill-opacity="0.1"/>
<path d="M1361.74 270.935V303.699C1361.74 307.179 1358.92 310 1355.44 310H1369.3C1372.78 310 1375.6 307.179 1375.6 303.699V270.935H1361.74Z" fill="#16A5A7" fill-opacity="0.1"/>
<path d="M1479.94 255.985C1478.89 255.828 1478.03 255.107 1477.6 254.142C1474.07 246.217 1466.12 240.691 1456.88 240.691C1447.64 240.691 1439.7 246.217 1436.16 254.142C1435.73 255.107 1434.87 255.828 1433.83 255.985C1426.57 257.074 1421 263.316 1420.97 270.867C1420.93 279.223 1428.06 286.057 1436.42 286.057H1477.35C1485.7 286.057 1492.83 279.223 1492.8 270.867C1492.76 263.316 1487.2 257.074 1479.94 255.985Z" fill="#21D3D4" fill-opacity="0.28"/>
<path d="M1266.97 240.863C1265.93 240.706 1265.06 239.985 1264.63 239.02C1261.1 231.095 1253.15 225.569 1243.91 225.569C1234.68 225.569 1226.73 231.095 1223.19 239.02C1222.76 239.985 1221.9 240.706 1220.86 240.863C1213.6 241.952 1208.03 248.194 1208 255.745C1207.96 264.101 1215.1 270.935 1223.45 270.935H1264.38C1272.73 270.935 1279.87 264.101 1279.83 255.745C1279.8 248.194 1274.23 241.952 1266.97 240.863Z" fill="#21D3D5" fill-opacity="0.1"/>
<path d="M1264.63 239.008C1262.37 233.949 1258.31 229.871 1253.27 227.584C1254.55 231.189 1255.26 235.07 1255.26 239.116C1255.26 253.512 1246.39 265.83 1233.83 270.935H1264.38C1272.74 270.935 1279.87 264.101 1279.83 255.746C1279.8 248.195 1274.23 241.954 1266.97 240.863C1265.92 240.705 1265.06 239.977 1264.63 239.008Z" fill="#05BEC0" fill-opacity="0.1"/>
<path d="M1381.9 275.613H1318.9C1316.31 275.613 1314.22 273.519 1314.22 270.935C1314.22 268.352 1316.31 266.257 1318.9 266.257H1381.9C1384.49 266.257 1386.58 268.352 1386.58 270.935C1386.58 273.519 1384.49 275.613 1381.9 275.613Z" fill="#16A5A7" fill-opacity="0.1"/>
</svg>
