<svg width="26" height="26" viewBox="0 0 26 26" fill="none" xmlns="http://www.w3.org/2000/svg">
<circle cx="13" cy="13" r="13" fill="#878787"/>
<path d="M0.25 13C0.25 5.96958 5.97006 0.25 13 0.25C20.0299 0.25 25.75 5.96958 25.75 13C25.75 20.0304 20.0299 25.75 13 25.75C5.97006 25.75 0.25 20.0304 0.25 13Z" fill="white" stroke="#878787" stroke-width="0.5"/>
<circle cx="13" cy="13" r="8" fill="#323232" stroke="#323232" stroke-width="2"/>
<path d="M13 21C8.58172 21 5 17.4183 5 13H1C1 19.6274 6.37258 25 13 25V21ZM21 13C21 17.4183 17.4183 21 13 21V25C19.6274 25 25 19.6274 25 13H21ZM13 5C17.4183 5 21 8.58172 21 13H25C25 6.37258 19.6274 1 13 1V5ZM13 1C6.37258 1 1 6.37258 1 13H5C5 8.58172 8.58172 5 13 5V1Z" fill="#585858"/>
</svg>
