<svg width="21" height="24" viewBox="0 0 21 24" fill="none" xmlns="http://www.w3.org/2000/svg">
<path fill-rule="evenodd" clip-rule="evenodd" d="M3.76719 18.4292L8.53742 3.67248C8.87548 2.62671 10.016 2.01975 11.0848 2.3168L16.7053 3.87884C17.7741 4.17589 18.3666 5.26446 18.0285 6.31024L13.2583 21.067C12.9202 22.1127 11.7797 22.7197 10.7109 22.4227L5.09039 20.8606C4.02155 20.5636 3.42914 19.475 3.76719 18.4292ZM16.7795 8.51693L16.8487 8.30334L17.3176 8.4333L17.2483 8.64689L16.7795 8.51693ZM8.30427 6.16309L8.37584 5.95035L9.29761 6.21385L9.23099 6.43002L8.30427 6.16309ZM9.71773 6.55843L9.78499 6.34625L10.7289 6.61095L10.6574 6.82369L9.71773 6.55843ZM11.1318 6.95776L11.1985 6.74159L12.1424 7.00629L12.0708 7.21903L11.1318 6.95776ZM12.541 7.35365L12.6119 7.13693L13.5375 7.42435L13.4709 7.64052L12.541 7.35365ZM13.9544 7.74899L14.0211 7.53282L14.965 7.79753L14.8941 8.01425L13.9544 7.74899ZM15.3679 8.14433L15.4345 7.92817L16.3601 8.21559L16.2892 8.43232L15.3679 8.14433ZM5.80742 16.0536C6.15123 16.344 6.645 16.5173 7.28874 16.5735C7.66372 16.6062 8.0137 16.5933 8.33867 16.5348C8.66408 16.4702 8.98077 16.3521 9.28875 16.1806L9.58014 16.5873C9.62569 16.6533 9.69846 16.6907 9.79846 16.6994L11.139 16.8163C11.1953 16.8212 11.2466 16.8071 11.293 16.774C11.3395 16.7408 11.3647 16.6965 11.3687 16.641C11.3709 16.6102 11.3608 16.5752 11.3385 16.5361L10.5902 15.4012C10.9107 15.1439 11.2249 14.8427 11.5328 14.4975C11.8407 14.1523 12.1871 13.6493 12.2522 13.4441C12.2683 13.3959 12.2618 13.3551 12.2328 13.3215C12.2105 13.2824 12.1743 13.2606 12.1243 13.2563L11.1212 13.1688C11.065 13.1639 11.0141 13.1718 10.9685 13.1927C10.9293 13.214 10.902 13.2427 10.8869 13.2785C10.6879 13.596 10.3506 14.0596 10.1949 14.2134C10.0454 14.3678 9.96368 14.4536 9.94985 14.471L9.19221 13.3353C9.68409 13.1426 10.0769 12.9289 10.3705 12.694C10.6647 12.4531 10.8619 12.1602 10.9622 11.8156C10.9943 11.7191 11.0146 11.6124 11.0231 11.4953C11.0502 11.1194 10.9287 10.7988 10.6586 10.5334C10.3884 10.268 9.98771 10.1122 9.45648 10.0658C9.01274 10.0271 8.61366 10.0667 8.25925 10.1846C7.90484 10.3025 7.61227 10.4785 7.38154 10.7126C7.15751 10.9411 7.00357 11.2005 6.91972 11.4908C6.88494 11.6242 6.86488 11.7279 6.85955 11.8018C6.83553 12.1345 6.94478 12.4944 7.18728 12.8814C6.71414 13.0758 6.32673 13.3024 6.02503 13.5613C5.72958 13.8208 5.52767 14.1349 5.41929 14.5037C5.37604 14.6673 5.35018 14.8077 5.34173 14.9248C5.30838 15.3869 5.46361 15.7632 5.80742 16.0536ZM9.30168 12.0799C9.14235 12.1963 8.91426 12.3066 8.61743 12.4109C8.44684 12.1604 8.36799 11.9458 8.38088 11.7671C8.39422 11.5822 8.47722 11.4345 8.62986 11.3238C8.78294 11.2069 8.95011 11.1564 9.13135 11.1722C9.2751 11.1847 9.38492 11.2315 9.46084 11.3125C9.543 11.3941 9.57963 11.4965 9.57074 11.6198C9.55739 11.8046 9.46771 11.958 9.30168 12.0799ZM8.65568 15.1487C8.34013 15.3382 8.0011 15.4172 7.63861 15.3856C7.43862 15.3681 7.27075 15.2977 7.13501 15.1742C7.00552 15.0513 6.94744 14.8974 6.96079 14.7126C6.96345 14.6756 6.97326 14.6268 6.99021 14.5663C7.08655 14.2771 7.35143 14.0491 7.78485 13.8822L8.65568 15.1487Z" fill="#B7B9B9"/>
<path fill-rule="evenodd" clip-rule="evenodd" d="M2.61897 18.3631L4.73443 3.17281C4.88628 2.0825 5.90042 1.31012 6.99958 1.44766L13.3133 2.23768C14.4125 2.37521 15.1804 3.37058 15.0286 4.46089L14.7307 6.59968L14.259 6.54144L14.2279 6.76246L14.7 6.82074L12.9131 19.6512C12.7613 20.7415 11.7472 21.5138 10.648 21.3763L4.33425 20.5863C3.23509 20.4488 2.46713 19.4534 2.61897 18.3631ZM5.45729 5.6849L5.48767 5.46084L6.46235 5.58309L6.43197 5.80715L5.45729 5.6849ZM6.92115 5.866L6.95153 5.64194L7.92621 5.76418L7.89583 5.98824L6.92115 5.866ZM8.3807 6.04765L8.41171 5.82758L9.38639 5.94983L9.35538 6.1699L8.3807 6.04765ZM9.83656 6.23386L9.86694 6.0098L10.8416 6.13205L10.8112 6.35611L9.83656 6.23386ZM11.2961 6.41551L11.3265 6.19145L12.3012 6.3137L12.2708 6.53776L11.2961 6.41551ZM12.7563 6.60116L12.791 6.37654L13.7657 6.49879L13.7303 6.71941L12.7563 6.60116ZM4.48353 5.57832L4.51465 5.3573L4.99984 5.41717L4.96871 5.6382L4.48353 5.57832Z" fill="#D9DCDC"/>
<path d="M7.29709 16.56C6.65117 16.502 6.15524 16.3276 5.8093 16.0369C5.46337 15.7462 5.30627 15.3705 5.33803 14.9097C5.34608 14.7929 5.37149 14.653 5.41428 14.49C5.52163 14.1225 5.72301 13.8099 6.01841 13.552C6.32009 13.2947 6.70786 13.0699 7.18174 12.8776C6.93707 12.4908 6.82616 12.1316 6.84903 11.7998C6.85411 11.7261 6.87385 11.6228 6.90825 11.4899C6.99128 11.2006 7.14474 10.9424 7.36862 10.7152C7.5992 10.4824 7.89202 10.3078 8.24709 10.1913C8.60216 10.0749 9.00232 10.0366 9.44757 10.0766C9.98061 10.1245 10.3831 10.2811 10.6551 10.5467C10.927 10.8122 11.0501 11.1323 11.0243 11.5071C11.0162 11.6238 10.9963 11.7302 10.9644 11.8263C10.865 12.1697 10.6682 12.4612 10.3741 12.7006C10.0804 12.9338 9.6872 13.1458 9.19451 13.3365L9.95866 14.4715C9.97247 14.4542 10.0541 14.3688 10.2035 14.2153C10.3591 14.0623 10.6957 13.6011 10.8942 13.2851C10.9093 13.2494 10.9365 13.2209 10.9758 13.1997C11.0214 13.1791 11.0724 13.1713 11.1288 13.1763L12.1353 13.2667C12.1855 13.2712 12.2219 13.293 12.2444 13.3322C12.2736 13.3657 12.2803 13.4065 12.2644 13.4545C12.1998 13.6589 11.8542 14.1595 11.5466 14.5028C11.239 14.8461 10.9249 15.1455 10.6045 15.4011L11.3592 16.5353C11.3817 16.5744 11.392 16.6093 11.3898 16.64C11.386 16.6953 11.3609 16.7394 11.3145 16.7724C11.268 16.8053 11.2166 16.8192 11.1601 16.8141L9.815 16.6934C9.71467 16.6843 9.64153 16.6469 9.5956 16.5809L9.30181 16.1744C8.99352 16.3445 8.67629 16.4613 8.35011 16.5247C8.02436 16.582 7.67335 16.5938 7.29709 16.56ZM8.61457 12.4127C8.91193 12.3096 9.14031 12.2003 9.2997 12.0848C9.46579 11.9637 9.55519 11.811 9.56789 11.6267C9.57636 11.5038 9.53924 11.4016 9.45653 11.32C9.38008 11.2389 9.26974 11.1919 9.12551 11.179C8.94365 11.1626 8.77616 11.2125 8.62303 11.3286C8.47033 11.4385 8.38762 11.5856 8.37492 11.7699C8.36264 11.9481 8.44252 12.1624 8.61457 12.4127ZM7.64368 15.3764C8.0074 15.409 8.34717 15.3313 8.663 15.1433L7.78483 13.8775C7.35069 14.0426 7.08584 14.2691 6.99026 14.5573C6.97349 14.6176 6.96383 14.6662 6.96129 14.7031C6.94858 14.8874 7.0074 15.041 7.13775 15.164C7.27436 15.2876 7.443 15.3583 7.64368 15.3764Z" fill="white"/>
</svg>
