<svg width="26" height="26" viewBox="0 0 26 26" fill="none" xmlns="http://www.w3.org/2000/svg">
<g clip-path="url(#clip0)">
<circle cx="13" cy="13" r="13" fill="white"/>
<path d="M18.7996 16.6505L18.7996 16.6505C19.3929 17.244 19.393 18.206 18.7996 18.7994C18.5029 19.0961 18.1136 19.2446 17.725 19.2446C17.3365 19.2446 16.9472 19.0961 16.6505 18.7994L13 15.149L9.34954 18.7996L9.34947 18.7997C9.05278 19.0961 8.66349 19.2446 8.27496 19.2446C7.88644 19.2446 7.49715 19.0961 7.20046 18.7997L7.20035 18.7996C6.60708 18.2061 6.60703 17.244 7.20039 16.6507L10.851 13L7.20039 9.34954L7.20035 9.3495C6.60708 8.75599 6.60703 7.79395 7.20039 7.20059C7.7939 6.60708 8.75596 6.60702 9.34933 7.20058C9.34935 7.2006 9.34936 7.20061 9.34937 7.20062L13 10.8511L16.6505 7.20059L16.6505 7.20055C17.2439 6.60734 18.206 6.60697 18.7994 7.20055C18.7994 7.20058 18.7994 7.2006 18.7994 7.20062M18.7996 16.6505L18.6226 9.17276C19.1185 8.67685 19.1185 7.87308 18.6226 7.37737L18.7994 7.20062M18.7996 16.6505L15.149 13M18.7996 16.6505L15.149 13M18.7994 7.20062C19.393 7.794 19.3929 8.75604 18.7994 9.34954L15.149 13M18.7994 7.20062L15.149 13M13 0.25C16.4061 0.25 19.6072 1.57591 22.0156 3.98438C24.4241 6.39285 25.75 9.59394 25.75 13C25.75 16.4063 24.4241 19.6072 22.0156 22.0156C19.6072 24.4241 16.4061 25.75 13 25.75C9.59394 25.75 6.39285 24.4241 3.98438 22.0156C1.57591 19.6072 0.25 16.4063 0.25 13C0.25 9.59394 1.57591 6.39285 3.98438 3.98438C6.39285 1.57591 9.59394 0.25 13 0.25Z" fill="#626262" stroke="#878787" stroke-width="0.5"/>
</g>
<defs>
<clipPath id="clip0">
<rect width="26" height="26" fill="white"/>
</clipPath>
</defs>
</svg>
