<svg width="12" height="10" viewBox="0 0 12 10" fill="none" xmlns="http://www.w3.org/2000/svg">
<g clip-path="url(#clip0)">
<path d="M0.5 1.04166L0.5 3.68459C0.5 4.18543 0.7145 4.65668 1.10408 5.01084L6.20167 9.64459C6.45008 9.87041 6.79383 10 7.14675 10C7.49783 10 7.84158 9.87041 8.09 9.64459L11.1095 6.89959C11.3575 6.67416 11.5 6.36166 11.5 6.04084C11.5 5.72168 11.3575 5.40918 11.109 5.18334L6.01147 0.54918C5.62233 0.195 5.10395 -1.98637e-07 4.55305 -1.74868e-07L1.64583 -4.94366e-08C1.0138 -2.21678e-08 0.5 0.46709 0.5 1.04166ZM4.16667 2.29166C4.16667 2.86625 3.65287 3.33332 3.02085 3.33332C2.3888 3.33332 1.87502 2.86623 1.87502 2.29166C1.87502 1.71709 2.3888 1.25 3.02083 1.25C3.65287 1.25 4.16667 1.71709 4.16667 2.29166Z" fill="#F28F17"/>
</g>
<defs>
<clipPath id="clip0">
<rect width="10" height="11" fill="white" transform="translate(0.5 10) rotate(-90)"/>
</clipPath>
</defs>
</svg>
