<svg width="24" height="24" viewBox="0 0 24 24" fill="none" xmlns="http://www.w3.org/2000/svg">
<path d="M21.5372 12.285C21.4487 12.1038 21.4487 11.8961 21.5372 11.7151L22.3577 10.0365C22.8145 9.10191 22.4526 7.98796 21.5337 7.5004L19.8833 6.62471C19.7052 6.53026 19.5831 6.36217 19.5483 6.1637L19.2255 4.32342C19.0458 3.29879 18.098 2.61027 17.0682 2.75598L15.2182 3.01765C15.0186 3.04584 14.8211 2.98165 14.6763 2.84153L13.3335 1.54251C12.5858 0.819184 11.4145 0.819141 10.6668 1.54251L9.324 2.84166C9.17911 2.98182 8.98167 3.04588 8.78204 3.01778L6.93213 2.75611C5.90197 2.61031 4.95452 3.29892 4.77479 4.32354L4.45201 6.16374C4.41716 6.36226 4.29509 6.53031 4.11707 6.62479L2.46667 7.50049C1.54775 7.988 1.18578 9.10204 1.64262 10.0366L2.4631 11.7152C2.55161 11.8963 2.55161 12.104 2.4631 12.285L1.64258 13.9636C1.18574 14.8982 1.54771 16.0121 2.46662 16.4997L4.11703 17.3754C4.29509 17.4698 4.41716 17.6379 4.45201 17.8364L4.77479 19.6766C4.93841 20.6094 5.73822 21.2636 6.65744 21.2635C6.74797 21.2635 6.83984 21.2571 6.93218 21.244L8.78208 20.9824C8.98159 20.9541 9.17915 21.0184 9.32404 21.1585L10.6668 22.4575C11.0407 22.8192 11.5204 23 12.0001 23C12.4798 22.9999 12.9597 22.8191 13.3334 22.4575L14.6763 21.1585C14.8212 21.0184 15.0187 20.9544 15.2182 20.9824L17.0682 21.244C18.0984 21.3898 19.0458 20.7012 19.2255 19.6766L19.5483 17.8364C19.5832 17.6379 19.7052 17.4698 19.8833 17.3754L21.5337 16.4997C22.4526 16.0121 22.8145 14.8981 22.3577 13.9635L21.5372 12.285ZM20.9389 15.3788L19.2885 16.2544C18.7623 16.5337 18.4015 17.0303 18.2985 17.6171L17.9758 19.4573C17.915 19.804 17.5945 20.0369 17.2459 19.9877L15.396 19.726C14.806 19.6424 14.2222 19.8323 13.7941 20.2465L12.4512 21.5454C12.1983 21.7901 11.802 21.7901 11.549 21.5454L10.2062 20.2464C9.84434 19.8963 9.37126 19.7066 8.87739 19.7066C8.7869 19.7066 8.69568 19.713 8.60432 19.7259L6.75442 19.9876C6.40612 20.0369 6.08536 19.804 6.02452 19.4573L5.7017 17.617C5.59874 17.0302 5.2379 16.5336 4.71167 16.2544L3.06126 15.3787C2.75034 15.2138 2.62788 14.8369 2.78244 14.5207L3.60296 12.8421C3.86455 12.3069 3.86455 11.6931 3.60296 11.1579L2.78244 9.4793C2.62788 9.1631 2.75034 8.78622 3.06126 8.62127L4.71167 7.74558C5.23786 7.46633 5.59874 6.9697 5.70165 6.38293L6.02443 4.54268C6.08527 4.19601 6.40573 3.96313 6.75433 4.01237L8.60424 4.27404C9.19398 4.35753 9.77796 4.16774 10.2061 3.75357L11.549 2.45456C11.8019 2.20989 12.1982 2.20989 12.4512 2.45456L13.794 3.75357C14.2222 4.16778 14.806 4.35753 15.3959 4.27404L17.2458 4.01237C17.5941 3.96308 17.9149 4.19601 17.9757 4.54268L18.2985 6.38297C18.4014 6.96974 18.7623 7.46641 19.2885 7.74558L20.9389 8.62127C21.2498 8.78622 21.3723 9.1631 21.2177 9.4793L20.3972 11.1578C20.1356 11.693 20.1356 12.3069 20.3972 12.8421L21.2177 14.5206C21.3723 14.8369 21.2499 15.2138 20.9389 15.3788Z" fill="white"/>
<path d="M16.6368 7.36453C16.389 7.11677 15.9873 7.11677 15.7395 7.36453L7.3655 15.7386C7.11775 15.9863 7.11775 16.3881 7.3655 16.6358C7.48938 16.7597 7.65176 16.8216 7.81409 16.8216C7.97643 16.8216 8.13885 16.7597 8.26268 16.6358L16.6367 8.26179C16.8846 8.01399 16.8846 7.61232 16.6368 7.36453Z" fill="white"/>
<path d="M9.46297 6.29004C8.18029 6.29004 7.13672 7.33361 7.13672 8.61629C7.13672 9.89898 8.18029 10.9425 9.46297 10.9425C10.7457 10.9425 11.7892 9.89898 11.7892 8.61629C11.7892 7.33361 10.7457 6.29004 9.46297 6.29004ZM9.46297 9.67365C8.87994 9.67365 8.40561 9.19933 8.40561 8.61625C8.40561 8.03321 8.87994 7.55889 9.46297 7.55889C10.046 7.55889 10.5204 8.03321 10.5204 8.61625C10.5203 9.19933 10.046 9.67365 9.46297 9.67365Z" fill="white"/>
<path d="M14.5372 13.0576C13.2545 13.0576 12.2109 14.1012 12.2109 15.3839C12.2109 16.6666 13.2545 17.7101 14.5372 17.7101C15.8199 17.7101 16.8634 16.6666 16.8634 15.3839C16.8634 14.1012 15.8199 13.0576 14.5372 13.0576ZM14.5372 16.4412C13.9542 16.4412 13.4798 15.9669 13.4798 15.3839C13.4798 14.8008 13.9541 14.3265 14.5372 14.3265C15.1202 14.3265 15.5946 14.8008 15.5946 15.3839C15.5946 15.9669 15.1202 16.4412 14.5372 16.4412Z" fill="white"/>
</svg>
