<svg width="24" height="24" viewBox="0 0 24 24" fill="none" xmlns="http://www.w3.org/2000/svg">
<g clip-path="url(#clip0)">
<path d="M15.0564 13.0067C15.2061 13.1575 15.4298 13.2049 15.6312 13.133C15.7084 13.1042 15.7681 13.0909 15.8182 13.0909C16.1191 13.0909 16.3636 13.3354 16.3636 13.6364C16.3636 13.6865 16.3504 13.7461 16.3216 13.8233C16.248 14.0231 16.2971 14.2474 16.4478 14.3981L16.8425 14.7928C17.1509 15.1023 17.5622 15.2728 18 15.2728C18.4378 15.2728 18.8491 15.1023 19.157 14.7934L23.5201 10.4302C23.8296 10.1218 24 9.7106 24 9.27277C24 8.83494 23.8296 8.4237 23.5206 8.11581L23.1254 7.72057C22.9746 7.56931 22.7509 7.52027 22.5506 7.59432C22.4734 7.62311 22.4137 7.6364 22.3636 7.6364C22.0627 7.6364 21.8182 7.39192 21.8182 7.09093C21.8182 7.04087 21.8315 6.98119 21.8602 6.90398C21.9338 6.70424 21.8847 6.47995 21.734 6.3292L17.6708 2.26601C17.52 2.11475 17.2958 2.06571 17.096 2.13975C17.0188 2.16854 16.9591 2.18184 16.9091 2.18184C16.6081 2.18184 16.3636 1.9373 16.3636 1.63636C16.3636 1.5863 16.3769 1.52663 16.4057 1.44941C16.4793 1.24967 16.4302 1.02539 16.2795 0.874637L15.8848 0.479915C15.5764 0.170438 15.1518 0 14.7273 0C14.3027 0 13.8782 0.170438 13.5703 0.479404L9.20721 4.84251C8.89773 5.15092 8.7273 5.56216 8.7273 5.99999C8.7273 6.43782 8.89773 6.84906 9.2067 7.15695L9.60193 7.55218C9.75161 7.70242 9.97533 7.74982 10.1767 7.67844C10.2539 7.64965 10.3136 7.63635 10.3637 7.63635C10.6646 7.63635 10.9091 7.88084 10.9091 8.18182C10.9091 8.23189 10.8958 8.29156 10.867 8.36878C10.7935 8.56852 10.8426 8.7928 10.9933 8.94355L11.8532 9.80346C7.6293 13.4635 2.2004 18.7144 0.639205 20.2756C0.226892 20.6879 0 21.2355 0 21.8182C0 23.0215 0.978495 24.0001 2.18184 24.0001C2.76459 24.0001 3.31216 23.7731 3.72447 23.3608C5.60378 21.4815 10.7268 16.1762 14.2096 12.1599L15.0564 13.0067ZM22.5735 8.71129L22.7499 8.88761C22.8527 8.98988 22.9092 9.12677 22.9092 9.27272C22.9092 9.41866 22.8527 9.55555 22.7494 9.65839L18.3852 14.0226C18.1806 14.2282 17.82 14.2287 17.6144 14.0221L17.4386 13.8463C17.4492 13.7754 17.4546 13.7056 17.4546 13.6364C17.4546 13.3851 17.3957 13.1466 17.294 12.9319L21.6586 8.56734C21.9317 8.69897 22.243 8.76146 22.5735 8.71129ZM10.1537 6.56141L9.97743 6.3851C9.87464 6.28282 9.81814 6.14593 9.81814 5.99999C9.81814 5.85404 9.87459 5.71715 9.97794 5.61432L14.3421 1.25013C14.5467 1.04451 14.9073 1.044 15.1129 1.25064L15.2887 1.42645C15.2781 1.49727 15.2727 1.56708 15.2727 1.63631C15.2727 1.88775 15.3316 2.12625 15.4332 2.34092L11.0675 6.70664C10.7953 6.5765 10.485 6.51401 10.1537 6.56141ZM11.8398 7.47696L16.2041 3.11267C16.4771 3.24399 16.7882 3.30638 17.119 3.25678L20.7433 6.88107C20.7326 6.95189 20.7273 7.02169 20.7273 7.09093C20.7273 7.34216 20.7862 7.58066 20.8879 7.79539L16.523 12.1602C16.2499 12.0287 15.9389 11.9662 15.6083 12.016L11.984 8.39174C11.9947 8.32092 12 8.25111 12 8.18188C12.0001 7.93003 11.9414 7.69148 11.8398 7.47696ZM2.95313 22.5895C2.747 22.7956 2.47321 22.9091 2.18184 22.9091C1.58047 22.9091 1.09094 22.4196 1.09094 21.8182C1.09094 21.5268 1.20442 21.2531 1.41055 21.0469C2.97159 19.4859 8.41884 14.2182 12.6268 10.577L13.4361 11.3864C9.97308 15.3858 4.83331 20.7093 2.95313 22.5895Z" fill="white"/>
<path d="M20.7274 18.5454H13.0911C11.2864 18.5454 9.81836 20.0134 9.81836 21.8181C9.81836 23.0214 10.7969 24 12.0002 24H21.8184C23.0217 24 24.0002 23.0215 24.0002 21.8181C24.0002 20.0134 22.5321 18.5454 20.7274 18.5454ZM21.8184 22.909H12.0002C11.3988 22.909 10.9093 22.4195 10.9093 21.8181C10.9093 20.6148 11.8878 19.6363 13.0911 19.6363H20.7274C21.9308 19.6363 22.9093 20.6148 22.9093 21.8181C22.9093 22.4195 22.4197 22.909 21.8184 22.909Z" fill="white"/>
</g>
<defs>
<clipPath id="clip0">
<rect width="24" height="24" fill="white"/>
</clipPath>
</defs>
</svg>
