<svg width="24" height="24" viewBox="0 0 24 24" fill="none" xmlns="http://www.w3.org/2000/svg">
<path d="M12 12C13.3738 12 14.5632 11.458 15.5353 10.3886C16.5071 9.31943 17 8.0112 17 6.49983C17 4.98898 16.5073 3.68057 15.5352 2.61103C14.563 1.542 13.3736 1 12 1C10.6261 1 9.43681 1.542 8.46484 2.6112C7.49287 3.6804 7 4.9888 7 6.49983C7 8.0112 7.49287 9.3196 8.46484 10.3888C9.43712 11.4578 10.6265 12 12 12ZM9.32515 3.5574C10.071 2.73699 10.9458 2.3382 12 2.3382C13.054 2.3382 13.929 2.73699 14.675 3.5574C15.4208 4.37798 15.7835 5.34056 15.7835 6.49983C15.7835 7.65944 15.4208 8.62184 14.675 9.44243C13.929 10.263 13.054 10.6618 12 10.6618C10.9462 10.6618 10.0713 10.2628 9.32515 9.44243C8.57919 8.62202 8.2165 7.65944 8.2165 6.49983C8.2165 5.34056 8.57919 4.37798 9.32515 3.5574Z" fill="white"/>
<path d="M20.9564 18.0837C20.9272 17.6691 20.8683 17.2168 20.7816 16.7392C20.694 16.258 20.5812 15.8031 20.4463 15.3874C20.3067 14.9577 20.1172 14.5333 19.8827 14.1267C19.6396 13.7046 19.3538 13.337 19.0332 13.0346C18.6979 12.7182 18.2873 12.4638 17.8126 12.2783C17.3396 12.0937 16.8153 12.0002 16.2545 12.0002C16.0343 12.0002 15.8213 12.0893 15.4099 12.3534C15.1568 12.5162 14.8606 12.7046 14.5301 12.9128C14.2475 13.0904 13.8646 13.2568 13.3917 13.4075C12.9303 13.5547 12.4619 13.6294 11.9993 13.6294C11.5371 13.6294 11.0687 13.5547 10.607 13.4075C10.1346 13.257 9.75152 13.0906 9.46939 12.913C9.142 12.7067 8.84571 12.5184 8.58877 12.3533C8.17775 12.0891 7.96476 12 7.74452 12C7.18355 12 6.65945 12.0937 6.18655 12.2784C5.71216 12.4636 5.30148 12.718 4.96585 13.0348C4.64521 13.3374 4.35946 13.7047 4.1165 14.1267C3.88227 14.5333 3.69265 14.9575 3.55307 15.3876C3.41826 15.8033 3.3055 16.258 3.21793 16.7392C3.13102 17.2161 3.07226 17.6686 3.04313 18.0842C3.01449 18.4905 3 18.9134 3 19.3407C3 20.4514 3.35801 21.3506 4.06399 22.0138C4.76125 22.6682 5.68369 23 6.80579 23H17.1942C18.316 23 19.2384 22.6682 19.9358 22.0138C20.642 21.3511 21 20.4516 21 19.3405C20.9998 18.9118 20.9852 18.4889 20.9564 18.0837ZM19.0641 21.1104C18.6034 21.5428 17.9917 21.7531 17.194 21.7531H6.80579C6.00796 21.7531 5.39629 21.5428 4.93573 21.1105C4.4839 20.6863 4.26432 20.1073 4.26432 19.3407C4.26432 18.942 4.27765 18.5483 4.30431 18.1704C4.33032 17.7996 4.38349 17.3923 4.46233 16.9595C4.54019 16.532 4.63928 16.1309 4.75714 15.7678C4.87022 15.4195 5.02445 15.0747 5.21572 14.7426C5.39827 14.426 5.6083 14.1544 5.84006 13.9356C6.05684 13.7309 6.33008 13.5633 6.65205 13.4377C6.94981 13.3214 7.28445 13.2578 7.64773 13.2482C7.69201 13.2714 7.77085 13.3158 7.89859 13.3979C8.15849 13.565 8.45807 13.7555 8.78925 13.9642C9.16257 14.1989 9.64354 14.4109 10.2182 14.5939C10.8056 14.7812 11.4048 14.8763 11.9995 14.8763C12.5942 14.8763 13.1935 14.7812 13.7807 14.594C14.3558 14.4107 14.8366 14.1989 15.2104 13.9638C15.5493 13.7502 15.8405 13.5651 16.1004 13.3979C16.2282 13.3159 16.307 13.2714 16.3513 13.2482C16.7147 13.2578 17.0494 13.3214 17.3473 13.4377C17.6691 13.5633 17.9423 13.731 18.1591 13.9356C18.3909 14.1543 18.6009 14.4258 18.7835 14.7427C18.9749 15.0747 19.1293 15.4197 19.2422 15.7676C19.3602 16.1312 19.4595 16.5322 19.5372 16.9593C19.6159 17.3929 19.6692 17.8004 19.6952 18.1705V18.1709C19.722 18.5473 19.7355 18.9408 19.7357 19.3407C19.7355 20.1074 19.5159 20.6863 19.0641 21.1104Z" fill="white"/>
</svg>
